<svg xmlns="http://www.w3.org/2000/svg" width="645.714" height="333.811" viewBox="0 0 645.714 333.811">
    <defs>
        <style>
            .cls-1{fill:#8e8e8e}.cls-2{fill:#f9e74d}.cls-3{fill:#fcfc63}.cls-6{fill:#333}.cls-9{fill:#fff}.cls-41{opacity:.5}.cls-17{fill:#4c4c4c}.cls-23{fill:#070707}.cls-27{fill:#70757c}.cls-32{fill:#595959}.cls-34{fill:#636363}.cls-40{fill:#fff5a9}.cls-42{fill:#cecece}.cls-43{fill:#e1e1e1}.cls-47{fill:#1b294b}.cls-48{fill:#a8ccff}.cls-49{fill:#ffce00}.cls-50{fill:#2a3967}.cls-52{fill:#3f3f3f}.cls-53{fill:#ffae73}.cls-54{fill:#1e3865}.cls-55{fill:#ff912b}.cls-56{fill:#fb7c1d}.cls-58{fill:#214d9a}.cls-60{fill:#f6fbff}.cls-62{fill:#211432}.cls-66{fill:#252f3f}.cls-67{fill:#2c53b5}.cls-70{fill:#eada8c}.cls-71{fill:#f4eca4}.cls-72{fill:#dbf3fc}.cls-73{fill:#59affc}
        </style>
    </defs>
    <g id="sell_your_car_mahindra_1_" transform="translate(-540.07 -87.374)">
        <g id="Layer_1" transform="translate(540.07 122.54)">
            <path id="Path_10377" d="M558.3 407.261l574.339-.065s1.663-3.645 3.744-8.409c1.536-3.527 3.443-8.2 5.427-13.849.37-1.075.749-2.151 1.118-3.226q.778-2.344 1.566-4.86c.194-.624.379-1.258.574-1.9 1.148-3.828 2.266-7.946 3.3-12.3.068-.3.146-.6.214-.914.379-1.667.759-3.366 1.118-5.108.194-.957.389-1.935.574-2.914v-.2l.2-1.075a192.822 192.822 0 0 0 2.8-22.247c.088-1.366.165-2.753.224-4.14s.107-2.817.126-4.247a157.53 157.53 0 0 0-1.819-27.323q-.846-5.484-2.149-11.011c-.642-2.688-1.362-5.376-2.188-8.086-.146-.505-.3-1.011-.457-1.505a135.7 135.7 0 0 0-7.109-17.989c-.263-.538-.525-1.075-.8-1.613a135.842 135.842 0 0 0-7.323-12.9c-.282-.43-.564-.871-.856-1.3q-2.392-3.624-5.1-7.215-3.939-5.215-8.577-10.312-6.428-7.032-12.74-12.807c-1.731-1.591-3.452-3.108-5.174-4.57q-2.208-1.871-4.405-3.591l-.243-.194q-5.1-4-10.065-7.247c-.681-.452-1.362-.882-2.033-1.312q-4.862-3.075-9.725-5.527l-2.091-1.075c-21.881-10.645-42.168-12.032-60.11-10.269-13.868 1.366-26.345 4.613-37.072 6.935l-2.091.441c-6.992 1.452-13.187 2.409-18.478 2.032-8.49-.591-15.414-6.108-22.863-14.247-.545-.6-1.089-1.2-1.634-1.828-4.308-4.882-8.869-10.591-14.082-16.71-.972-1.075-1.945-2.237-2.918-3.376q-2.917-3.355-6.166-6.817l-.956-1.091c-.729-.774-1.469-1.538-2.227-2.3l-.972-1.075c-2.451-2.452-5.038-4.914-7.78-7.355a153.2 153.2 0 0 0-46.281-28.452 183.783 183.783 0 0 0-27.561-8.4 272.8 272.8 0 0 0-35.438-5.366q-4.434-.387-8.927-.645-4.8-.269-9.647-.387-2.917-.065-5.835-.065-7.2 0-14.344.376c-1.692.086-3.375.194-5.057.323-20.607 1.538-40.466 5.71-57.212 13.172-11.758 5.226-56.026 28.613-69.048 68.172a73.006 73.006 0 0 0-.973 42.237c14.588 55.366-7.653 62.258-35.535 88.635-37.124 35.198-49.115 82.736-19.263 107.091z" class="cls-1" transform="translate(-518.81 -122.426)"/>
            <path id="Rectangle_19811" d="M0 0H95.5V56.086H0z" class="cls-2" transform="translate(130.425 132.665)"/>
            <path id="Rectangle_19812" d="M0 0H109.464V164.067H0z" class="cls-3" transform="translate(405.076 121.543)"/>
            <path id="Rectangle_19813" d="M0 0H130.961V174.251H0z" class="cls-3" transform="translate(225.915 110.957)"/>
            <path id="Rectangle_19814" d="M0 0H187.21V84.991H0z" class="cls-2" transform="translate(220.69 52.526)"/>
            <path id="Path_10378" fill="#e8ca4d" d="M874.74 250.569l98.419-93.059 98.419 93.059z" transform="translate(-554.425 -124.04)"/>
            <path id="Path_10379" fill="#23221c" d="M1048.056 224.258a3.627 3.627 0 0 1-2.46-.957l-103.942-90.438c-33.106 30.149-71.553 59.178-72.74 59.953a3.618 3.618 0 0 1-4.183-5.905c2.383-1.962 45.759-41.385 74.463-67.524a3.618 3.618 0 0 1 4.891 0l106.392 98.582a3.618 3.618 0 0 1-2.45 6.269z" transform="translate(-522.92 -88.597)"/>
            <path id="Rectangle_19815" d="M0 0H130.961V174.251H0z" class="cls-6" transform="translate(291.391 110.957)"/>
            <path id="Path_10380" fill="#fce754" d="M844.52 235.7l65.485-61.915 65.476 61.915z" transform="translate(-553.129 -124.738)"/>
            <path id="Path_10381" d="M898.606 228.793v33.719H860.14v-33.068a19.429 19.429 0 0 1 6.336-14.414 17.547 17.547 0 0 1 2-1.589 15.075 15.075 0 0 1 2.144-1.33 19.353 19.353 0 0 1 9.064-2.221 18.367 18.367 0 0 1 9.016 2.316 12.02 12.02 0 0 1 2.144 1.349 15.425 15.425 0 0 1 1.809 1.474 18.826 18.826 0 0 1 5.953 13.763z" opacity="0.67" transform="translate(-522.789 -92.52)"/>
            <path id="Path_10382" d="M899.225 223.676h-39.6l.613-1.627a20.646 20.646 0 0 1 5.4-7.963 18.878 18.878 0 0 1 2.134-1.694 15.69 15.69 0 0 1 2.278-1.407 20.645 20.645 0 0 1 9.571-2.354 19.5 19.5 0 0 1 9.579 2.469 13.066 13.066 0 0 1 2.3 1.455 16.834 16.834 0 0 1 1.914 1.531 20.2 20.2 0 0 1 5.216 7.982zm-36.025-2.412h32.542a17.83 17.83 0 0 0-3.934-5.417 15.37 15.37 0 0 0-1.665-1.359 11.144 11.144 0 0 0-1.981-1.254 17.161 17.161 0 0 0-8.49-2.192 18.319 18.319 0 0 0-8.5 2.077 14.23 14.23 0 0 0-1.981 1.225 17.877 17.877 0 0 0-1.914 1.512 18.558 18.558 0 0 0-4.077 5.408z" class="cls-9" transform="translate(-522.767 -92.466)"/>
            <path id="Rectangle_19816" fill="#7c7c7c" d="M0 0H75.181V39.969H0z" opacity="0.63" transform="translate(318.994 130.013)"/>
            <path id="Rectangle_19817" d="M0 0H2.412V39.969H0z" class="cls-9" transform="translate(355.383 130.013)"/>
            <path id="Rectangle_19818" d="M0 0H72.644V1.206H0z" class="cls-9" transform="translate(319.884 142.283)"/>
            <path id="Rectangle_19819" d="M0 0H72.644V1.206H0z" class="cls-9" transform="translate(319.884 155.415)"/>
            <path id="Rectangle_19820" d="M0 0H2.412V39.969H0z" class="cls-9" transform="translate(338.662 130.013)"/>
            <path id="Rectangle_19821" d="M0 0H2.412V39.969H0z" class="cls-9" transform="translate(372.104 130.013)"/>
            <path id="Rectangle_19822" d="M0 0H2.412V39.969H0z" class="cls-9" transform="translate(391.763 130.013)"/>
            <path id="Rectangle_19823" d="M0 0H2.412V39.969H0z" class="cls-9" transform="translate(318.994 130.013)"/>
            <path id="Rectangle_19824" d="M0 0H75.181V2.412H0z" class="cls-9" transform="translate(319.004 167.57)"/>
            <path id="Rectangle_19825" d="M0 0H75.181V2.412H0z" class="cls-9" transform="translate(319.004 130.013)"/>
            <path id="Path_10383" d="M891.218 213.655l-11.351 12.031-11.017-12.146a15.074 15.074 0 0 1 2.144-1.33l8.9 9.81 9.2-9.715a12.025 12.025 0 0 1 2.125 1.35z" class="cls-9" transform="translate(-523.162 -92.62)"/>
            <path id="Rectangle_19826" d="M0 0H75.181V39.969H0z" class="cls-1" transform="translate(318.994 205.414)"/>
            <path id="Rectangle_19827" d="M0 0H2.412V39.969H0z" class="cls-9" transform="translate(355.383 205.414)"/>
            <path id="Rectangle_19828" d="M0 0H72.644V1.206H0z" class="cls-9" transform="translate(319.884 217.694)"/>
            <path id="Rectangle_19829" d="M0 0H72.644V1.206H0z" class="cls-9" transform="translate(319.884 230.825)"/>
            <path id="Rectangle_19830" d="M0 0H2.412V39.969H0z" class="cls-9" transform="translate(338.662 205.414)"/>
            <path id="Rectangle_19831" d="M0 0H2.412V39.969H0z" class="cls-9" transform="translate(372.104 205.414)"/>
            <path id="Rectangle_19832" d="M0 0H2.412V39.969H0z" class="cls-9" transform="translate(391.763 205.414)"/>
            <path id="Rectangle_19833" d="M0 0H2.412V39.969H0z" class="cls-9" transform="translate(318.994 205.414)"/>
            <path id="Rectangle_19834" d="M0 0H75.181V2.412H0z" class="cls-9" transform="translate(319.004 242.981)"/>
            <path id="Rectangle_19835" d="M0 0H75.181V2.412H0z" class="cls-9" transform="translate(319.004 205.414)"/>
            <path id="Rectangle_19836" fill="#2d2d2d" d="M0 0H33.317V39.969H0z" opacity="0.5" transform="translate(243.813 205.414)"/>
            <path id="Rectangle_19837" d="M0 0H2.067V39.969H0z" class="cls-9" transform="translate(275.063 205.414)"/>
            <path id="Rectangle_19838" d="M0 0H32.197V1.206H0z" class="cls-9" transform="translate(244.206 217.694)"/>
            <path id="Rectangle_19839" d="M0 0H32.197V1.206H0z" class="cls-9" transform="translate(244.206 230.825)"/>
            <path id="Rectangle_19840" d="M0 0H2.067V39.969H0z" class="cls-9" transform="translate(259.271 205.414)"/>
            <path id="Rectangle_19841" d="M0 0H2.067V39.969H0z" class="cls-9" transform="translate(243.813 205.414)"/>
            <path id="Rectangle_19842" d="M0 0H33.317V2.412H0z" class="cls-9" transform="translate(243.813 242.981)"/>
            <path id="Rectangle_19843" d="M0 0H33.317V2.412H0z" class="cls-9" transform="translate(243.813 205.414)"/>
            <path id="Rectangle_19844" fill="#2d2d2d" d="M0 0H33.317V39.969H0z" transform="translate(243.813 148.17)"/>
            <path id="Rectangle_19845" d="M0 0H2.067V39.969H0z" class="cls-9" transform="translate(275.063 148.17)"/>
            <path id="Rectangle_19846" d="M0 0H32.197V1.206H0z" class="cls-9" transform="translate(244.206 160.449)"/>
            <path id="Rectangle_19847" d="M0 0H32.197V1.206H0z" class="cls-9" transform="translate(244.206 173.581)"/>
            <path id="Rectangle_19848" d="M0 0H2.067V39.969H0z" class="cls-9" transform="translate(259.271 148.17)"/>
            <path id="Rectangle_19849" d="M0 0H2.067V39.969H0z" class="cls-9" transform="translate(243.813 148.17)"/>
            <path id="Rectangle_19850" d="M0 0H33.317V2.412H0z" class="cls-9" transform="translate(243.813 185.736)"/>
            <path id="Rectangle_19851" d="M0 0H33.317V2.412H0z" class="cls-9" transform="translate(243.813 148.17)"/>
            <path id="Rectangle_19852" fill="#545454" d="M0 0H33.317V39.969H0z" transform="translate(451.228 117.514)"/>
            <path id="Rectangle_19853" d="M0 0H2.067V39.969H0z" class="cls-9" transform="translate(482.477 117.514)"/>
            <path id="Rectangle_19854" d="M0 0H32.197V1.206H0z" class="cls-9" transform="translate(451.62 129.793)"/>
            <path id="Rectangle_19855" d="M0 0H32.197V1.206H0z" class="cls-9" transform="translate(451.62 142.925)"/>
            <path id="Rectangle_19856" d="M0 0H2.067V39.969H0z" class="cls-9" transform="translate(466.685 117.514)"/>
            <path id="Rectangle_19857" d="M0 0H2.067V39.969H0z" class="cls-9" transform="translate(451.228 117.514)"/>
            <path id="Rectangle_19858" d="M0 0H33.317V2.412H0z" class="cls-9" transform="translate(451.228 155.08)"/>
            <path id="Rectangle_19859" d="M0 0H33.317V2.412H0z" class="cls-9" transform="translate(451.228 117.514)"/>
            <path id="Path_10384" fill="#2b2712" d="M802.308 209.7a3.608 3.608 0 0 1-2.173-6.5c2.383-1.972 45.75-41.414 74.463-67.533a3.627 3.627 0 0 1 4.9 0l73.1 67.744a3.618 3.618 0 1 1-4.91 5.3l-71.467-57.962c-31.01 26.646-70.759 57.57-71.917 58.383a3.57 3.57 0 0 1-2 .565z" transform="translate(-520.153 -89.296)"/>
            <path id="Rectangle_19860" fill="#383838" d="M0 0H90.14V95.787H0z" transform="translate(135.775 188.761)"/>
            <path id="Rectangle_19861" fill="#bfbf37" d="M0 0H96.744V38.466H0z" transform="translate(422.361 164.287)"/>
            <path id="Path_10385" d="M1007.276 371.889H972.37v-41.6a17.553 17.553 0 0 1 17.553-17.553 17.352 17.352 0 0 1 17.352 17.352z" class="cls-9" transform="translate(-527.603 -96.932)"/>
            <path id="Path_10386" d="M1004.1 330.738v.766h-28.27v-.622a13.572 13.572 0 0 1 13.562-13.572h1.283a13.4 13.4 0 0 1 13.428 13.428z" class="cls-17" transform="translate(-527.751 -97.128)"/>
            <path id="Rectangle_19862" d="M0 0H28.273V11.361H0z" class="cls-17" transform="translate(448.079 238.76)"/>
            <path id="Rectangle_19863" d="M0 0H28.273V18.568H0z" class="cls-17" transform="translate(448.079 253.873)"/>
            <path id="Rectangle_19864" d="M0 0H52.277V3.761H0z" class="cls-9" transform="translate(436.086 274.307)"/>
            <path id="Rectangle_19865" d="M0 0H61.121V3.761H0z" class="cls-9" transform="translate(431.665 278.078)"/>
            <path id="Rectangle_19866" d="M0 0H68.385V3.771H0z" class="cls-9" transform="translate(428.028 281.839)"/>
            <path id="Rectangle_19867" fill="#2d2d2d" d="M0 0H45.549V54.641H0z" opacity="0.69" transform="translate(160.43 206.352)"/>
            <path id="Rectangle_19868" d="M0 0H2.833V54.651H0z" class="cls-9" transform="translate(203.155 206.352)"/>
            <path id="Rectangle_19869" d="M0 0H44.017V1.646H0z" class="cls-9" transform="translate(160.966 223.14)"/>
            <path id="Rectangle_19870" d="M0 0H44.017V1.646H0z" class="cls-9" transform="translate(160.966 241.086)"/>
            <path id="Rectangle_19871" d="M0 0H2.833V54.651H0z" class="cls-9" transform="translate(181.563 206.352)"/>
            <path id="Rectangle_19872" d="M0 0H2.833V54.651H0z" class="cls-9" transform="translate(160.43 206.352)"/>
            <path id="Rectangle_19873" d="M0 0H45.549V3.292H0z" class="cls-9" transform="translate(160.44 257.701)"/>
            <path id="Rectangle_19874" d="M0 0H45.549V3.292H0z" class="cls-9" transform="translate(160.44 206.352)"/>
            <path id="Path_10387" fill="#353a3f" d="M741.107 317.236H676.34V261.15h39.844z" opacity="0.6" transform="translate(-545.915 -128.485)"/>
            <path id="Path_10388" fill="#353a3f" d="M789.235 227.121H738.25V142.14h19.142c5.508 15.18 22.272 59.647 31.843 84.981z" opacity="0.66" transform="translate(-517.56 -89.614)"/>
            <path id="Path_10389" fill="#cec96e" d="M1079.571 294.19v38.466h-64.011l25.4-38.466z" transform="translate(-560.466 -129.903)"/>
            <path id="Path_10390" fill="#191919" d="M832.468 172.36a5.063 5.063 0 0 1 5.063 5.063v18.061H827.3v-17.956a5.168 5.168 0 0 1 5.168-5.168z" transform="translate(-552.39 -124.677)"/>
            <path id="Path_10391" d="M824.8 169.774h14.912l-7.4-7.054z" class="cls-23" transform="translate(-552.283 -124.263)"/>
            <path id="Path_10392" d="M829.326 172.253h-.67l-.1-2.383h.909z" class="cls-9" transform="translate(-552.444 -124.57)"/>
            <path id="Path_10393" d="M836.466 172.253h-.66l-.105-2.383h.909z" class="cls-9" transform="translate(-552.751 -124.57)"/>
            <path id="Path_10394" fill="#0d0d38" d="M1138.412 386.066h-621.9a.833.833 0 0 1-.833-.833.833.833 0 0 1 .833-.823h621.9a.833.833 0 0 1 .833.823.833.833 0 0 1-.833.833z" transform="translate(-508.014 -100.006)"/>
            <path id="Path_10395" fill="#393d42" d="M1081.532 241.583h-1.292v-.1l.392-3.446a.22.22 0 0 1 .21-.191.384.384 0 0 1 .191.086.363.363 0 0 1 .105.22z" transform="translate(-532.23 -93.719)"/>
            <path id="Path_10396" fill="#777" d="M1080.37 240.807l.325-2.766a.22.22 0 0 1 .21-.191.354.354 0 0 1 .1.23v1.991a.7.7 0 0 1-.632.737z" transform="translate(-532.235 -93.719)"/>
            <path id="Rectangle_19875" d="M0 0H2.488V109.857H0z" class="cls-27" transform="translate(547.637 163.177)"/>
            <path id="Rectangle_19876" fill="#343638" d="M0 0H1.149V109.857H0z" opacity="0.58" transform="translate(547.637 163.177)"/>
            <path id="Rectangle_19877" d="M0 0H7.925V29.067H0z" class="cls-27" transform="translate(544.919 255.509)"/>
            <path id="Rectangle_19878" fill="#343638" d="M0 0H4.719V29.067H0z" opacity="0.43" transform="translate(544.919 255.509)"/>
            <path id="Path_10397" fill="#1d2126" d="M1085.262 243.372c0 1.359-2.039 2.46-4.556 2.46a5.472 5.472 0 0 1-.565 0c-2.249-.144-3.991-1.187-3.991-2.441s1.742-2.287 3.991-2.431a5.478 5.478 0 0 1 .565 0c2.517-.039 4.556 1.062 4.556 2.412z" transform="translate(-532.054 -93.852)"/>
            <path id="Path_10398" fill="#565656" d="M1082.907 243.371c0 1.1-1.139 2.039-2.766 2.441-2.249-.144-3.991-1.187-3.991-2.441s1.742-2.287 3.991-2.431c1.608.402 2.766 1.34 2.766 2.431z" transform="translate(-532.054 -93.852)"/>
            <path id="Path_10399" d="M1117.19 294.7h-7.915l-2.795-13.457h13.084z" class="cls-32" transform="translate(-564.365 -129.347)"/>
            <path id="Rectangle_19879" fill="#20252b" d="M0 0H14.5V1.292H0z" transform="translate(541.406 150.878)"/>
            <path id="Rectangle_19880" d="M0 0H9.112V1.292H0z" class="cls-34" transform="translate(541.406 150.878)"/>
            <path id="Path_10400" d="M1078.36 354.1h5.063l-.737-2.249a.488.488 0 0 0-.459-.335h-2.374a.651.651 0 0 0-.593.392z" class="cls-27" transform="translate(-532.149 -98.595)"/>
            <path id="Path_10401" fill="#c7dcf9" d="M1107.45 281.93h11.179l-2.182 12.088h-6.413z" transform="translate(-564.407 -129.377)"/>
            <path id="Path_10402" fill="#707070" d="M1076.47 243.559s.852-1.866 2.527-1.809c0 0-1.062.957-.957 1.809s-1.57 0-1.57 0z" transform="translate(-532.068 -93.887)"/>
            <path id="Path_10403" fill="#23282d" d="M1119.354 280.114h-12.644l1.034-1.474h10.624z" transform="translate(-564.375 -129.236)"/>
            <path id="Path_10404" d="M1116.233 280.114h-9.523l1.034-1.474h7.513z" class="cls-34" transform="translate(-564.375 -129.236)"/>
            <path id="Path_10405" fill="#d2e4f9" d="M1108.23 282.37h2.565l.737 11.294h-.737z" transform="translate(-564.44 -129.396)"/>
            <path id="Path_10406" fill="#a5a5a5" d="M567.62 326.919c0-16.9-9.236-58.269-20.635-58.269s-20.635 41.366-20.635 58.269c0 15.878 8.164 28.933 18.606 30.455v21.774h3.828V357.4c10.548-1.318 18.836-14.479 18.836-30.481z" transform="translate(-508.471 -95.04)"/>
            <path id="Rectangle_19881" d="M0 0H4.068V44.525H0z" class="cls-32" transform="translate(18.597 239.497)"/>
            <path id="Path_10407" d="M548.931 313.793c0 16.9-9.236 30.627-20.626 30.627s-20.635-13.7-20.635-30.627 9.236-76.913 20.635-76.913 20.626 60.011 20.626 76.913z" class="cls-32" transform="translate(-507.67 -93.678)"/>
            <path id="Path_10408" d="M1108.037 353a5.685 5.685 0 0 1 2.871 3.407 10.077 10.077 0 0 1 .306 4.537 17.746 17.746 0 0 1-3.953 8.193c-2.441-2.211-2.938-5.992-3.072-7.925-.211-3.063 1.263-8.71 3.828-8.212" class="cls-40" transform="translate(-533.256 -98.657)"/>
            <path id="Path_10409" d="M1110.326 374.729a4.852 4.852 0 0 1 1.656-4.594 6.489 6.489 0 0 1 4.785-1.407 2.718 2.718 0 0 1 2.068.957 2.049 2.049 0 0 1 0 2.106 4.069 4.069 0 0 1-1.589 1.5c-2.163 1.311-4.508 2.173-6.92 1.407" class="cls-40" transform="translate(-533.517 -99.332)"/>
            <g id="Group_74512" class="cls-41" transform="translate(573.46 272.268)">
                <path id="Path_10410" d="M1106.83 383.809a4.714 4.714 0 0 1 .105-.6l.325-1.627a17.115 17.115 0 0 1 1.78-5.188 10.528 10.528 0 0 1 3.828-3.914 6.6 6.6 0 0 1 1.531-.641 2.585 2.585 0 0 1 .45-.105h.151a11.247 11.247 0 0 0-2.058.9 10.8 10.8 0 0 0-3.713 3.886 18.406 18.406 0 0 0-1.819 5.111c-.163.68-.3 1.235-.4 1.618a3.4 3.4 0 0 1-.182.565z" class="cls-42" transform="translate(-1106.83 -371.73)"/>
            </g>
            <g id="Group_74513" class="cls-41" transform="translate(573.451 258.744)">
                <path id="Path_10411" d="M1107.4 357.6a1.026 1.026 0 0 1 0 .268v.756c0 .66 0 1.618.057 2.795v9.217c0 3.6-.239 6.853-.373 9.207-.077 1.177-.134 2.134-.191 2.785a6.325 6.325 0 0 1-.067.756 1.261 1.261 0 0 1 0 .268.957.957 0 0 1 0-.268v-.756c0-.689.077-1.637.125-2.795.105-2.354.23-5.609.306-9.207s.115-6.853.115-9.207v-3.551a1.521 1.521 0 0 1 .028-.268z" class="cls-42" transform="translate(-1106.82 -357.6)"/>
            </g>
            <path id="Path_10412" d="M1105.41 376.372a11.4 11.4 0 0 0-6.058-8.451c-.823-.412-1.914-.689-2.594-.086a2.382 2.382 0 0 0-.239 2.575 9.705 9.705 0 0 0 8.824 6.2" class="cls-40" transform="translate(-532.917 -99.28)"/>
            <g id="Group_74514" class="cls-41" transform="translate(566.779 271.445)">
                <path id="Path_10413" d="M1099.85 370.87a2.161 2.161 0 0 1 .526.239 4.837 4.837 0 0 1 .584.325 7.53 7.53 0 0 1 .747.488 8.108 8.108 0 0 1 .852.67 9.262 9.262 0 0 1 .957.852 12.737 12.737 0 0 1 1.7 2.278 12.206 12.206 0 0 1 1.11 2.632c.105.421.211.823.268 1.215a9.242 9.242 0 0 1 .124 1.072v.89a6.2 6.2 0 0 1 0 .67 2.172 2.172 0 0 1-.077.574c-.048 0 .057-.823-.067-2.125a9.307 9.307 0 0 0-.153-1.053 10.625 10.625 0 0 0-.278-1.2 13.6 13.6 0 0 0-1.1-2.575 13.064 13.064 0 0 0-1.665-2.249 9.108 9.108 0 0 0-.88-.852 9.574 9.574 0 0 0-.823-.68c-1.107-.779-1.844-1.133-1.825-1.171z" class="cls-42" transform="translate(-1099.85 -370.87)"/>
            </g>
            <path id="Path_10414" d="M1158.255 285.26l-15.7 31.671 4.68.172-13.294 25.162h6.987l-10.9 22.348h60.91l-13.409-22.348 6.422-.278-12.851-25.152 4.757-.278z" class="cls-9" transform="translate(-565.375 -129.52)"/>
            <path id="Path_10415" d="M1129.849 288.36c.086 0 0 19.142-.278 42.687s-.507 50.315-.6 50.315 0-26.732.278-50.315.504-42.687.6-42.687z" class="cls-43" transform="translate(-534.318 -95.886)"/>
            <path id="Path_10416" d="M1137.365 296.86a105.753 105.753 0 0 1-7.245 9.4 54.123 54.123 0 0 1 3.493-4.786 55.037 55.037 0 0 1 3.752-4.613z" class="cls-43" transform="translate(-534.369 -96.25)"/>
            <path id="Path_10417" d="M1129.43 305.766a27.751 27.751 0 0 1-3.446-2.488 27.084 27.084 0 0 1-3.254-2.737 28.975 28.975 0 0 1 3.446 2.489 27.085 27.085 0 0 1 3.254 2.736z" class="cls-43" transform="translate(-534.052 -96.408)"/>
            <path id="Path_10418" d="M1128.953 321.927a8.021 8.021 0 0 1-1.158-.9c-.689-.584-1.637-1.388-2.709-2.259s-2.048-1.637-2.756-2.2a7.573 7.573 0 0 1-1.12-.957 5.741 5.741 0 0 1 1.254.766c.747.517 1.761 1.254 2.871 2.134a35.21 35.21 0 0 1 2.651 2.335 5.951 5.951 0 0 1 .967 1.081z" class="cls-43" transform="translate(-533.987 -97.055)"/>
            <path id="Path_10419" d="M1137.345 312.18a62.572 62.572 0 0 1-3.828 5.025 53.041 53.041 0 0 1-4.087 4.786 62.534 62.534 0 0 1 3.828-5.025 57.011 57.011 0 0 1 4.087-4.785z" class="cls-43" transform="translate(-534.34 -96.908)"/>
            <path id="Path_10420" d="M623.606 321.73l-12.088 24.387 3.608.134-10.241 19.381h5.379l-8.394 17.209h44.218l-7.628-17.209 4.948-.22-9.908-19.372 3.666-.211z" class="cls-9" transform="translate(-542.721 -131.084)"/>
            <path id="Path_10421" d="M594.288 316c.067 0 0 14.73-.22 32.886s-.392 32.886-.459 32.886 0-14.73.211-32.886.392-32.886.468-32.886z" class="cls-43" transform="translate(-511.355 -97.071)"/>
            <path id="Path_10422" d="M600.071 322.55a39.662 39.662 0 0 1-2.689 3.7 43.272 43.272 0 0 1-2.871 3.541 42.71 42.71 0 0 1 2.689-3.691 44.947 44.947 0 0 1 2.871-3.551z" class="cls-43" transform="translate(-511.395 -97.352)"/>
            <path id="Path_10423" d="M593.968 329.4a22 22 0 0 1-2.661-1.914 22.562 22.562 0 0 1-2.508-2.115 21.642 21.642 0 0 1 2.661 1.914 21.416 21.416 0 0 1 2.508 2.115z" class="cls-43" transform="translate(-511.15 -97.473)"/>
            <path id="Path_10424" d="M593.593 341.853a5.34 5.34 0 0 1-.89-.689c-.526-.45-1.263-1.072-2.086-1.742s-1.57-1.263-2.125-1.694a4.883 4.883 0 0 1-.852-.727 4.528 4.528 0 0 1 .957.593c.584.392 1.359.957 2.182 1.637s1.541 1.321 2.048 1.8a5.006 5.006 0 0 1 .766.823z" class="cls-43" transform="translate(-511.1 -97.972)"/>
            <path id="Path_10425" d="M600.057 334.35a47.379 47.379 0 0 1-2.948 3.828 44.984 44.984 0 0 1-3.149 3.714c-.048 0 1.273-1.771 2.958-3.828a46.151 46.151 0 0 1 3.139-3.714z" class="cls-43" transform="translate(-511.371 -97.859)"/>
            <path id="Path_10426" fill="#6b6b6b" d="M644.33 368.886h159.042l53.713-4.833s-9.571-23.928-12.232-24.311-195.489 0-195.489 0z" transform="translate(-513.532 -98.083)"/>
            <path id="Path_10427" fill="#ffd400" d="M879.165 364.7c-3.962 1.618-27.88 1.981-27.88 1.981s.536-29.326-24.109-25.909-20.339 27.756-20.339 27.756L688.356 370.7s1.914-30.915-24.234-27.66c-21.736 2.651-16.194 27.5-16.194 27.5C626.259 371.66 624 364.3 624 364.3v-3.034h1.359v-8H624V347.3l4.556-10.432c7.657-13.2 67.878-16.8 67.878-16.8 9.14-5.254 16.721-9.16 22.655-11.993 9.456-4.527 20.243-8.939 30.675-9.973a236.9 236.9 0 0 1 57.2 1.292c6.652 1.082 40.112 15.649 42.63 16.912s23.066 2.967 25.7 3.283a2.871 2.871 0 0 1 2.565 2.957l.364 2.345 1.378 8.911.335 2.182c1.914.957 1.914 3.7 1.914 3.7s1.267 23.403-2.685 25.016z" transform="translate(-512.66 -96.255)"/>
            <circle id="Ellipse_342" cx="18.242" cy="18.242" r="18.242" transform="translate(136.723 247.728)"/>
            <path id="Path_10428" d="M668.94 378.771a14.27 14.27 0 1 1 14.26-14.264 14.27 14.27 0 0 1-14.26 14.264zm0-27.211a12.95 12.95 0 1 0 12.95 12.95 12.95 12.95 0 0 0-12.95-12.95z" class="cls-9" transform="translate(-513.975 -98.54)"/>
            <path id="Path_10429" d="M704.28 413.436h-5.111l1.637-14.012-1.876-13.3 5.848.354-1.952 12.95z" class="cls-9" transform="translate(-546.884 -133.846)"/>
            <path id="Path_10430" d="M690.776 408.9l-2.556-4.431 12.959-5.58 10.586-8.279 2.613 5.235-12.193 4.786z" class="cls-9" transform="translate(-546.425 -134.038)"/>
            <path id="Path_10431" d="M688.75 394.719l2.814-4.269 10.806 9.064 12.146 5.743-3.516 4.689-9.743-8.748z" class="cls-9" transform="translate(-546.448 -134.032)"/>
            <circle id="Ellipse_343" cx="4.757" cy="4.757" r="4.757" class="cls-9" transform="translate(150.18 261.185)"/>
            <circle id="Ellipse_344" cx="18.242" cy="18.242" r="18.242" transform="translate(298.502 247.728)"/>
            <path id="Path_10432" d="M837.97 378.771a14.27 14.27 0 1 1 14.261-14.264 14.27 14.27 0 0 1-14.261 14.264zm0-27.211a12.95 12.95 0 1 0 12.95 12.95 12.95 12.95 0 0 0-12.95-12.95z" class="cls-9" transform="translate(-521.225 -98.54)"/>
            <path id="Path_10433" d="M873.311 413.436H868.2l1.637-14.012-1.866-13.3 5.838.354-1.953 12.95z" class="cls-9" transform="translate(-554.135 -133.846)"/>
            <path id="Path_10434" d="M859.805 408.9l-2.555-4.431 12.959-5.58 10.586-8.279 2.613 5.235-12.194 4.786z" class="cls-9" transform="translate(-553.675 -134.038)"/>
            <path id="Path_10435" d="M857.78 394.719l2.814-4.269 10.806 9.064 12.146 5.743-3.513 4.69-9.743-8.748z" class="cls-9" transform="translate(-553.698 -134.032)"/>
            <circle id="Ellipse_345" cx="4.757" cy="4.757" r="4.757" class="cls-9" transform="translate(311.959 261.185)"/>
            <path id="Path_10436" fill="#f4f4f4" d="M649.374 338.59h-11.935a10.911 10.911 0 0 0-9.514 5.589l-.412.727a1.11 1.11 0 0 0 .957 1.656h14.357a3.522 3.522 0 0 0 2.613-1.149l4.68-5.073a1.043 1.043 0 0 0-.747-1.751z" transform="translate(-512.805 -98.04)"/>
            <path id="Path_10437" d="M634.885 365.15h-4.039a3.723 3.723 0 0 0-3.245 1.914l-.144.249a.383.383 0 0 0 .335.565h4.9a1.216 1.216 0 0 0 .89-.392l1.6-1.732a.354.354 0 0 0-.3-.6z" class="cls-47" transform="translate(-512.806 -99.18)"/>
            <path id="Path_10438" d="M838.513 318.562l-60.9 1.445a2.125 2.125 0 0 1-2.182-2.125v-14.031a1.981 1.981 0 0 1 2.01-1.981c25.976.364 34.877 1.082 40.2 2.929 4.709 1.627 15.725 8.3 21.41 11.686a1.12 1.12 0 0 1-.536 2.077z" class="cls-48" transform="translate(-519.155 -96.465)"/>
            <path id="Path_10439" d="M767.36 301.78h2.871v18.3l-58.757 1.4a.766.766 0 0 1-.45-1.4c6.892-4.604 29.892-18.606 56.336-18.3z" class="cls-48" transform="translate(-516.378 -96.461)"/>
            <path id="Path_10440" d="M841.13 319.2v-2.55l.6.354a1.168 1.168 0 0 1-.6 2.192z" class="cls-48" transform="translate(-521.973 -97.099)"/>
            <path id="Path_10441" d="M807.517 356.087l-7.2-.574.479-19.573h6.719z" class="cls-49" transform="translate(-551.233 -131.693)"/>
            <path id="Path_10442" d="M855.3 356.2h-3.36v-17.58l3.359 2.02z" class="cls-49" transform="translate(-553.447 -131.808)"/>
            <path id="Path_10443" d="M718.815 316l1.79 5.934-9.8.239a.584.584 0 0 1-.354-1.053c2.209-1.636 6.315-4.469 8.364-5.12z" class="cls-50" transform="translate(-516.358 -97.071)"/>
            <path id="Path_10444" d="M710.349 322.014a.918.918 0 0 1-.526-1.675l.2-.144.708-.488.689-.459.373-.239c.278-.191.584-.383.9-.584l.7-.44.105-.057.632-.4.23-.134.335-.211.5-.3c.469-.278.957-.584 1.5-.881l.5-.287 1.024-.584.249-.134c.708-.392 1.417-.785 2.125-1.158l.239-.124.316-.172c1.35-.708 2.737-1.4 4.125-2.058l.431-.211 1.311-.613.45-.2.909-.4.459-.2 1.484-.641.852-.354c1.914-.794 3.828-1.541 5.819-2.211l.421-.153.488-.163.6-.2.488-.163.517-.163.957-.3.651-.2.957-.3.555-.163 1.062-.3 2.126-.55h.19l.957-.22.546-.134h.144l.421-.1.555-.124.555-.115.565-.124.565-.115.536-.105.536-.105.6-.105.392-.077h.182l1.148-.191.584-.086 1.015-.144c.641-.086 1.273-.172 1.914-.239h.048l.517-.057h.785l.44-.048.593-.057h1.024l.852-.057h2.728a1.857 1.857 0 0 1 1.378.536 1.915 1.915 0 0 1 .584 1.369v15.17a2.354 2.354 0 0 1-2.287 2.345l-53.713 1.273zm8.863-6.355l-.325.191c-.392.211-.766.431-1.129.641l-.5.278-1.493.881-.488.3c-.115.067-.23.134-.335.211l-.182.105h-.048l-.641.392-.134.086-.7.44-.88.565-.364.249-.689.45-.7.479-.1.067 10.088-.239 43.5-1.034a1.388 1.388 0 0 0 1.349-1.378v-15.117a.949.949 0 0 0-.986-.948h-2.7l-.852.057h-.431l-.574.048-.593.057h-.44l-.383.048h-.383l-.517.057-1.914.239-1.005.144-.574.086-1.139.191h-.182l-.383.067-.6.115-.526.1-.536.105-.555.105-.565.124-.555.115-.555.124-.4.1h-.144l-.546.124-.957.22-.172.048-2.106.555-1.043.3-.555.153-.957.3-.641.2-.957.3-.5.163-.479.163-.6.2-.479.163-.421.144c-1.914.67-3.828 1.407-5.743 2.192l-.842.354-1.474.632-.459.211c-.306.124-.6.258-.9.4l-.44.2-1.311.6-.431.2c-1.369.66-2.737 1.34-4.077 2.039l-.325.172-.23.124z" class="cls-47" transform="translate(-516.324 -96.462)"/>
            <path id="Path_10445" d="M824.036 319.637a1.4 1.4 0 0 1-.957-.4 1.589 1.589 0 0 1-.459-1.12v-10.195c0-.584.086-1.33.555-1.618a1.857 1.857 0 0 1 1.6.144c.5.249.852.421 1.034.526h.077l.211.115c2.546 1.388 6.183 3.589 10.8 6.518l.584.373 1.359.871 1.618 1.043.8.526.115.077a1.493 1.493 0 0 1 .593 1.665 1.359 1.359 0 0 1-1.273 1.034h-.182l-16.462.431zm.1-12.538a.584.584 0 0 0-.316.1.766.766 0 0 0-.354.68v10.241a.756.756 0 0 0 .2.517.565.565 0 0 0 .392.153l16.644-.431a.536.536 0 0 0 .479-.412.651.651 0 0 0-.239-.727l-.115-.077-.8-.526-1.656-1.034-1.349-.861-.584-.373c-4.6-2.919-8.222-5.111-10.758-6.489l-.2-.115h-.067l-1.015-.507a.575.575 0 0 0-.258-.134z" class="cls-47" transform="translate(-521.179 -96.651)"/>
            <path id="Path_10446" d="M718.815 316l1.79 5.934-9.8.239a.584.584 0 0 1-.354-1.053c2.209-1.636 6.315-4.469 8.364-5.12z" class="cls-50" transform="translate(-516.358 -97.071)"/>
            <path id="Path_10447" d="M777.533 320.464a2.594 2.594 0 0 1-2.6-2.6V303.83a2.469 2.469 0 0 1 2.5-2.46c26.8.373 35.107.957 40.371 2.957l.316.115v15.065l-40.514.957zm-.144-18.137a1.484 1.484 0 0 0-1.493 1.5v14.031a1.637 1.637 0 0 0 1.685 1.646l39.567-.957v-13.435c-5.12-1.819-13.907-2.421-39.739-2.785z" class="cls-47" transform="translate(-519.134 -96.444)"/>
            <path id="Path_10448" fill="#b53c37" d="M890.207 335.061h-11.486a5.551 5.551 0 0 1-4.374-2.115l-4.355-5.513a.794.794 0 0 1 .622-1.283H888.8z" transform="translate(-523.204 -97.507)"/>
            <path id="Path_10449" d="M696.71 321.11l-.469.785a10.787 10.787 0 0 1-8.509 5.235c-9.485.67-28.637 2.02-38.753 2.718-13.687.957-20.1 7.944-20.1 8.059 7.629-13.198 67.831-16.797 67.831-16.797z" class="cls-23" transform="translate(-512.869 -97.291)"/>
            <path id="Rectangle_19882" d="M0 0H61.456V0.479H0z" class="cls-6" transform="rotate(-89.32 261.28 5.443)"/>
            <path id="Rectangle_19883" d="M0 0H118.566V0.479H0z" class="cls-47" transform="rotate(-1.13 13677.653 -8762.97)"/>
            <path id="Path_10450" d="M764.469 334.187c0 .641-2.871 1.168-6.48 1.168s-6.48-.526-6.48-1.168 2.871-1.177 6.48-1.177 6.48.526 6.48 1.177z" class="cls-52" transform="translate(-518.129 -97.801)"/>
            <path id="Path_10451" d="M827.48 334.187c0 .641-2.871 1.168-6.47 1.168s-6.48-.526-6.48-1.168 2.871-1.177 6.48-1.177 6.47.526 6.47 1.177z" class="cls-52" transform="translate(-520.832 -97.801)"/>
            <path id="Path_10452" d="M809.979 363.193h-.479a26.24 26.24 0 0 1 5.379-15.314 25.479 25.479 0 0 1 10.413-7.561 39.462 39.462 0 0 1 14.424-2.737V319.31h.479v18.769h-.249a38.582 38.582 0 0 0-14.481 2.7 24.981 24.981 0 0 0-10.212 7.4c-3.159 3.96-4.93 9.013-5.274 15.014z" class="cls-47" transform="translate(-520.617 -97.213)"/>
            <path id="Path_10453" d="M706.088 365.342a256.342 256.342 0 0 1 1.474-33.221 77.164 77.164 0 0 1 1.738-10.241l.459.134c0 .124-3.551 13.065-3.2 43.319z" class="cls-47" transform="translate(-516.179 -97.324)"/>
            <path id="Rectangle_19884" d="M0 0H9.38V0.479H0z" class="cls-47" transform="translate(248.905 205.165)"/>
            <path id="Rectangle_19885" d="M0 0H18.424V0.613H0z" class="cls-49" transform="rotate(-68.21 253.396 -10.291)"/>
            <path id="Path_10454" d="M683.51 326.65c0-.249.383-.45.852-.45s.861.2.861.45-.383.459-.861.459-.852-.201-.852-.459z" class="cls-49" transform="translate(-515.212 -97.509)"/>
            <path id="Path_10455" d="M697.292 320.684a1 1 0 0 1-.689-.5 203.866 203.866 0 0 0-13.936-21.143c-7.791-10.385-19.841-24.234-33-31.259a1 1 0 0 1-.412-1.359.957.957 0 0 1 1.349-.412 82.061 82.061 0 0 1 18.5 14.242 159.932 159.932 0 0 1 15.161 17.611 207.172 207.172 0 0 1 14.069 21.353.994.994 0 0 1-1.043 1.464z" class="cls-49" transform="translate(-513.738 -94.922)"/>
            <path id="Path_10456" d="M642.384 328.22a25.546 25.546 0 0 1 3.694.211c1.263.239 3.436.957 2.737 1.168s-3.484.44-4.24.565-1.4.957-2.192.8a5.14 5.14 0 0 1-1.914-1.168z" class="cls-53" transform="translate(-513.366 -97.596)"/>
            <path id="Path_10457" d="M645.293 331.454l-2.823-.4s.526-1.11.957-.8a7.658 7.658 0 0 0 1.617.632c.297.079.249.568.249.568z" class="cls-53" transform="translate(-513.452 -97.68)"/>
            <path id="Path_10458" d="M640.848 328.213c.756-.861.747-1.043.747-1.043s-7.054-8.384-7.657-9.2-5.857-14.2-5.857-14.2c-4.4-.536-7.532 4.02-5.274 7.657 2.689 4.384 5.532 8.93 6.326 9.925 2.689 3.35 10.4 7.733 10.4 7.733a3.225 3.225 0 0 0 1.315-.872z" class="cls-54" transform="translate(-512.576 -96.545)"/>
            <path id="Path_10459" d="M663.922 367.976l-1.072-.842 3.752-4.384 1.062.842z" class="cls-9" transform="translate(-545.337 -132.843)"/>
            <path id="Path_10460" d="M636.952 326.928a1.082 1.082 0 0 1-1.407.163.957.957 0 0 1-.191-1.445.2.2 0 0 0-.23-.306 1.617 1.617 0 0 0-.727.546 1.522 1.522 0 0 0 .22 2.048 1.685 1.685 0 0 0 2.374-.153 1.542 1.542 0 0 0 .335-.689.21.21 0 0 0-.373-.163z" class="cls-9" transform="translate(-513.093 -97.472)"/>
            <path id="Path_10461" d="M630.911 334.09a.957.957 0 0 0-.115-1.359 1.072 1.072 0 0 0-1.512.105.2.2 0 0 1-.364-.153 1.541 1.541 0 0 1 .421-.794 1.684 1.684 0 0 1 2.134-.191 1.512 1.512 0 0 1 .306 2.249 1.56 1.56 0 0 1-.632.459.2.2 0 0 1-.239-.316z" class="cls-9" transform="translate(-512.871 -97.732)"/>
            <path id="Path_10462" d="M629.259 329a29.583 29.583 0 0 1 3.13 0 5.466 5.466 0 0 1 1.7.794c0 .124 0 .5-.278.469s-.507-.211-.469-.105 1.043.211.957.7-.737 1.914-1.914 1.761-3.216-1.809-3.407-1.866c-1.595-.434.281-1.753.281-1.753z" class="cls-53" transform="translate(-512.846 -97.627)"/>
            <path id="Path_10463" d="M590.5 376.628s-1.685 1.493-1.359 2.555 1.847 1.771 2.058 3.072 1.024 2 1.761 2h3.522s.546-.909-.775-1.187-1.8-1.8-1.723-3.216a23.634 23.634 0 0 0-.124-3.312l-2.785-.622z" class="cls-50" transform="translate(-511.163 -99.642)"/>
            <path id="Path_10464" d="M612.115 380.861s-.411 3.139.325 3.493 9.571.239 9.571.239 0-1.062-1.512-1.3-4.192-1.1-4.642-3.024-3.742.592-3.742.592z" class="cls-50" transform="translate(-512.145 -99.797)"/>
            <path id="Path_10465" d="M619.836 330.661s-.5 5.963-1.091 13.132c-.794 9.734-1.752 21.7-1.847 23.928-.163 3.934-.814 10.231-.814 10.231s-1.56 1.493-4.68.871a99.05 99.05 0 0 1-3.58-18.5v-.469c-.747-9.676-1.914-30.063-1.914-30.063z" class="cls-55" transform="translate(-511.884 -97.663)"/>
            <path id="Path_10466" d="M615.835 335.429l-8.011 24.933v-.469c-.747-9.676-1.914-30.063-1.914-30.063z" class="cls-56" transform="translate(-511.884 -97.665)"/>
            <path id="Path_10467" d="M616.9 330.951s-8.987 21.6-14.893 31.747-7.753 12.988-7.753 12.988-3.388-1.3-3.694-2.182c0 0 2.259-19.6 6.212-24.378 2.24-2.7 2.307-8.011 3.321-13.5a110.322 110.322 0 0 1 4.355-15.6z" class="cls-55" transform="translate(-511.225 -97.244)"/>
            <path id="Path_10468" d="M622.38 299.787s3.742 6.145 7.341 6.91a10.1 10.1 0 0 0-.737-2.871 1.139 1.139 0 0 1 .153-1.2l.44-.536a20.192 20.192 0 0 0 1.311-1.809l-1.216-3.13-.852-2.115a10.3 10.3 0 0 1-1.273 1.8 8.892 8.892 0 0 1-5.168 2.948z" class="cls-53" transform="translate(-512.59 -96.172)"/>
            <path id="Path_10469" fill="#f9924f" d="M627.739 296.92a6.384 6.384 0 0 0 2.067 5.245 20.2 20.2 0 0 0 1.311-1.809l-1.216-3.12a7.217 7.217 0 0 0-2.163-.316z" transform="translate(-512.819 -96.253)"/>
            <path id="Path_10470" d="M632.084 300.546s-5.5-1.981-4.154-5.255 1.531-5.743 5.1-4.594 3.733 2.632 3.57 3.828-3.042 6.432-4.516 6.021z" class="cls-53" transform="translate(-512.819 -95.974)"/>
            <path id="Path_10471" d="M625.4 320.6l.507-.957a30.908 30.908 0 0 0 2.23-4.967 22.969 22.969 0 0 0 .957-3.733 11.39 11.39 0 0 0-.057-4.47s-.555-2.1-.565-2.106a8.212 8.212 0 0 1-4.326-5.331s-11.763 2.163-18.185 17.295c0 0-.421 1.12-.957 2.776-.115.354-.23.737-.354 1.139-.796 2.76 18.576 4.511 20.75.354z" class="cls-58" transform="translate(-511.829 -96.344)"/>
            <path id="Path_10472" d="M614.452 310.42s-3.34 5.618-1.3 9.906 6.968-2.3 6.968-2.3z" class="cls-54" transform="translate(-512.166 -96.832)"/>
            <path id="Path_10473" fill="#25468f" d="M626.969 289.137c0-.067-.144-.144-.421-.22a1.216 1.216 0 0 1 .555 0 1.436 1.436 0 0 1 1.216-.957.852.852 0 0 0-.546.5c.957-.593 2.728-.785 7.2.584 5.877 1.8 3 5.092 2.106 5.369s-2.536-1.388-4.01-1.6-2.24 1.761-2.8 1.914-.239-.278-.833-.718-.957.613-.9 1.359-1.11 1.445-1.11 1.445l-.689-1.168c-.689-1.177-.555-5.465.077-6.24z" transform="translate(-512.757 -95.869)"/>
            <path id="Path_10474" d="M619.5 332.28c.211-6.365 3.656-7.092 5.829-11.246l.507-.957a30.9 30.9 0 0 0 2.23-4.967 22.963 22.963 0 0 0 .957-3.733l-5.924-2.154a2.469 2.469 0 0 0-3.005 1.082c-1.483 2.67-4.651 7.379-9.016 8.26a49.865 49.865 0 0 1-6.078.957c-.115.354-.23.737-.354 1.139-.842 2.737-2.019 6.154-1.637 8.7.266 2 16.469 3.426 16.491 2.919z" class="cls-55" transform="translate(-511.756 -96.774)"/>
            <path id="Path_10475" d="M624.12 299.28s1.177 1.378 1.637 4.977a15.887 15.887 0 0 1-.22 5.427l-1.024-.306a14.471 14.471 0 0 0-1.292-9.8s.056-.087.899-.298z" class="cls-55" transform="translate(-512.626 -96.354)"/>
            <path id="Path_10476" d="M629.531 329.369a2.459 2.459 0 0 0 0-1.914s-6.441-5.637-6.824-6.7S623.971 308 623.971 308s-4.345-4.326-7.006-3.828c-1.2.23-2.8 2.756-2.795 2.871.536 4.786 1.5 12.892 2.268 14.778 1.694 4.192 11.4 8.48 11.4 8.48s1.349-.013 1.693-.932z" class="cls-58" transform="translate(-512.238 -96.562)"/>
            <path id="Path_10477" d="M625.6 311.243a.507.507 0 0 0-.622-.364.5.5 0 0 0-.373.6.517.517 0 0 0 .632.354.488.488 0 0 0 .364-.593z" class="cls-56" transform="translate(-512.685 -96.851)"/>
            <path id="Path_10478" d="M563.59 179.7s7.121-11.753 24.148-10.452c0 0 24.713-19.592 51.071-2.613 0 0 28.024-4.2 48.812 3.647 13.83 5.235 18.4 10.729 18.4 10.729z" class="cls-60" transform="translate(-510.069 -90.368)"/>
            <path id="Path_10518" d="M563.59 179.7s7.121-11.753 24.148-10.452c0 0 24.713-19.592 51.071-2.613 0 0 28.024-4.2 48.812 3.647 13.83 5.235 18.4 10.729 18.4 10.729z" class="cls-60" transform="translate(-60.303 -90.368)"/>
            <path id="Path_10479" fill="#fafdff" d="M1012.08 131.1s7.121-11.753 24.148-10.452c0 0 24.712-19.592 51.071-2.613 0 0 28.024-4.2 48.812 3.647 13.83 5.235 18.4 10.729 18.4 10.729z" transform="translate(-529.306 -88.283)"/>
            <path id="Path_10501" d="M743.431 329.245a4.165 4.165 0 0 1-1.024-.124l-18.845-5.312a.27.27 0 1 1 .153-.517l18.826 5.312a3.828 3.828 0 0 0 4.6-2.823l4.269-15.2a.249.249 0 0 1 .325-.182.268.268 0 0 1 .191.325l-4.259 15.2a4.383 4.383 0 0 1-4.24 3.321z" class="cls-62" transform="translate(-516.922 -96.831)"/>
            <path id="Path_10502" d="M724.208 319.488a.268.268 0 0 1-.268-.258.258.258 0 0 1 .258-.278l12.7-.584 2.5-10.1a.278.278 0 0 1 .326-.2.268.268 0 0 1 .191.325l-2.517 10.3a.268.268 0 0 1-.249.2l-12.911.593z" class="cls-62" transform="translate(-516.947 -96.731)"/>
            <path id="Path_10504" fill="#ed9d8d" d="M734.864 321.253a.2.2 0 0 1-.163-.086l-.833-1.082a.2.2 0 0 1 .326-.249l.833 1.091a.19.19 0 0 1-.163.325z" transform="translate(-517.371 -97.233)"/>
            <g id="Group_74515" transform="translate(192.282 183.646)">
                <path id="Path_10480" d="M715.072 428.58c-4.912.624-6.5 2.608-6.5 2.608l14.119.409.052-2.861z" class="cls-62" transform="translate(-708.57 -317.529)"/>
                <path id="Path_10481" fill="#422863" d="M708.57 432.09v.052a1.018 1.018 0 0 0 1 1.04l12.343.245a.743.743 0 0 0 .788-.743v-.3z" transform="translate(-708.57 -318.43)"/>
                <path id="Path_10482" d="M714.839 427.581a.468.468 0 0 1-.193-.037c-.5-.208-.869-1.226-1.174-2.17-.045-.134-.074-.23-.1-.282-.067-.178-.282-.743.052-1.048a.743.743 0 0 1 .832-.067 1.322 1.322 0 0 1 .483.535 5.122 5.122 0 0 1 .617 2.638.625.625 0 0 1-.3.379.49.49 0 0 1-.223.052zm-.966-3.292a.2.2 0 0 0-.149.052c-.1.1-.082.29.037.594l.1.3c.141.438.58 1.769.944 1.917a.074.074 0 0 0 .067 0 .215.215 0 0 0 .082-.126 4.8 4.8 0 0 0-.58-2.311 1.011 1.011 0 0 0-.327-.379.379.379 0 0 0-.174-.047z" class="cls-62" transform="translate(-709.771 -316.321)"/>
                <path id="Path_10483" d="M714.306 428.064a6.018 6.018 0 0 1-2.058-.676l-.275-.119c-.178-.067-.743-.275-.743-.743a.743.743 0 0 1 .513-.654 1.315 1.315 0 0 1 .743 0 5.077 5.077 0 0 1 2.356 1.338.588.588 0 0 1 .074.476.5.5 0 0 1-.268.32.928.928 0 0 1-.342.058zm-2.229-1.828a.745.745 0 0 0-.186 0 .312.312 0 0 0-.223.245c0 .134.163.26.468.372l.29.134c.416.193 1.687.78 2.043.617a.074.074 0 0 0 .045-.052v-.152a4.734 4.734 0 0 0-2.081-1.144 1.574 1.574 0 0 0-.364-.022z" class="cls-62" transform="translate(-709.253 -316.819)"/>
                <path id="Path_10484" fill="#3d3d3d" d="M718 346.041l-7.119 26.12a9.772 9.772 0 0 0-.171 4.422l5.127 30.824 7.379.3-.743-33.492 5.2-15.65 6.242 49.974 7.535.461-.8-63.164z" transform="translate(-709.074 -296.273)"/>
                <path id="Path_10485" d="M740.14 432.44a1.077 1.077 0 0 0 1.078 1.078h8.018a1.078 1.078 0 0 0 1.078-1.078z" class="cls-66" transform="translate(-716.68 -318.52)"/>
                <path id="Path_10486" d="M740.14 431.531h10.173s-.944-2.37-4.734-2.608a5.945 5.945 0 0 0-5.439 2.608z" class="cls-62" transform="translate(-716.68 -317.611)"/>
                <path id="Path_10487" d="M765.325 396.7l-2.125-4.5.476 9.43z" class="cls-62" transform="translate(-746.681 -334.399)"/>
                <path id="Path_10488" d="M723.879 384.282a.208.208 0 0 1-.082-.4l1.189-.528-1.746-1.4a.216.216 0 0 1 0-.3.2.2 0 0 1 .29 0l2.014 1.62a.2.2 0 0 1 .082.186.223.223 0 0 1-.126.163l-1.486.661a.171.171 0 0 1-.135-.002z" class="cls-62" transform="translate(-712.323 -305.459)"/>
                <path id="Path_10489" d="M745.909 427.259a.632.632 0 0 1-.193-.037c-.5-.208-.869-1.234-1.174-2.177l-.1-.282c-.067-.171-.282-.706.052-1.04a.743.743 0 0 1 .832-.074 1.389 1.389 0 0 1 .483.542 5.093 5.093 0 0 1 .617 2.631.594.594 0 0 1-.3.386.445.445 0 0 1-.217.051zm-.966-3.292a.2.2 0 0 0-.149.052c-.1.089-.082.29 0 .594a2.092 2.092 0 0 0 .1.3c.149.438.58 1.769.944 1.917h.067s.052 0 .082-.126a4.861 4.861 0 0 0-.572-2.311 1.062 1.062 0 0 0-.334-.386.371.371 0 0 0-.141-.045z" class="cls-62" transform="translate(-717.753 -316.237)"/>
                <path id="Path_10490" d="M745.376 427.739a6.071 6.071 0 0 1-2.058-.676l-.275-.126c-.171-.067-.743-.275-.743-.743a.743.743 0 0 1 .513-.661 1.382 1.382 0 0 1 .743 0 5.077 5.077 0 0 1 2.356 1.338.579.579 0 0 1 .074.476.468.468 0 0 1-.268.312.788.788 0 0 1-.342.08zm-2.229-1.835a.514.514 0 0 0-.186 0 .3.3 0 0 0-.223.245c0 .126.163.253.468.372a2.625 2.625 0 0 1 .29.134c.424.193 1.694.743 2.051.609a.039.039 0 0 0 .037-.045v-.149a4.9 4.9 0 0 0-2.088-1.152 1.579 1.579 0 0 0-.357-.015z" class="cls-62" transform="translate(-717.235 -316.733)"/>
                <path id="Path_10491" d="M726.979 300.7l5.67-1.159a9.66 9.66 0 0 1 11.6 10.136l-1.486 28.84-24.522.892 1.189-31.062a7.491 7.491 0 0 1 7.55-7.647z" class="cls-67" transform="translate(-711.054 -284.327)"/>
                <path id="Path_10492" d="M727.642 310.243l-2.177-9.1s-10.4-1.813-12.581 11.191c-.483 2.913-1.226 10.2.825 11.8 2.467 1.917 11.533-3.2 11.533-3.2l-7.186-3.01z" class="cls-67" transform="translate(-709.54 -284.767)"/>
                <path id="Path_10493" fill="#f4e7a4" d="M722.443 286.5l-.743-2.593 7.007-1.947.877 3.166c.483-.171 1.59-.461 1.962.409.438 1.026-.438 2.66-2.17 1.352l2.928 8.323s-2.051.914-5.2 2.3l-.156-4.986a5.1 5.1 0 0 1-2.794-.134.981.981 0 0 1-.743-.877c-.074-1.07-.312-2.445-.386-2.9h-.26a.587.587 0 0 1-.587-.676z" transform="translate(-711.943 -279.862)"/>
                <path id="Path_10494" fill="#eadc8c" d="M728.77 295.366s.936-.282 2.229-2.326l-2.148 4.667z" transform="translate(-713.759 -282.709)"/>
                <path id="Path_10495" d="M734.129 287.946h-.082a.178.178 0 0 1-.059-.23.743.743 0 0 0-.193-1.04.171.171 0 0 1 0-.23.156.156 0 0 1 .23-.037 1.092 1.092 0 0 1 .29 1.486.171.171 0 0 1-.186.051z" class="cls-70" transform="translate(-715.039 -280.996)"/>
                <path id="Path_10496" d="M723.084 286.736h.1a3.183 3.183 0 0 1 .684 0 .245.245 0 0 0 .26-.23.238.238 0 0 0-.23-.253 4.046 4.046 0 0 0-.8 0 .238.238 0 0 0-.193.282.23.23 0 0 0 .179.201z" class="cls-66" transform="translate(-712.249 -280.96)"/>
                <path id="Path_10497" d="M733.364 287.578a.156.156 0 0 1-.141-.089.163.163 0 0 1 .067-.223l.646-.342a.171.171 0 0 1 .223.074.163.163 0 0 1-.067.223l-.646.334a.171.171 0 0 1-.082.023z" class="cls-70" transform="translate(-714.898 -281.133)"/>
                <path id="Path_10498" d="M724.835 290.4s-.438.951-1.115.914c0 0 .461.468.743.193a1.486 1.486 0 0 0 .372-1.107z" class="cls-9" transform="translate(-712.462 -282.03)"/>
                <path id="Path_10499" d="M723.835 287.689a.33.33 0 0 1-.111.416c-.112.045-.282-.067-.342-.253a.347.347 0 0 1 .1-.416c.108-.044.309.075.353.253z" class="cls-66" transform="translate(-712.369 -281.267)"/>
                <path id="Path_10500" d="M723.54 322.35l14.706 3.716a3.188 3.188 0 0 0 3.834-2.341l1.932-7.059-9.229-1-.743 2.527-9.868.609z" class="cls-67" transform="translate(-712.416 -288.522)"/>
                <path id="Path_10503" d="M722.362 322.237c-1.226-.238-2.348-.505-2.311-1.969a9.336 9.336 0 0 1 .067-2.564c.981-.936 3.054 1.442 3.054 1.442s-.848 3.181-.81 3.091z" class="cls-71" transform="translate(-711.505 -288.989)"/>
                <path id="Path_10505" d="M729.216 280.41a1.776 1.776 0 0 0-.617-1.115c-.52-.334-1.189-.067-1.768.141a7.9 7.9 0 0 1-2.452.446 22.635 22.635 0 0 0-2.356 0 2.839 2.839 0 0 0-2.044 1.025 1.434 1.434 0 0 0-.178 1.427.951.951 0 0 0 1.271.446.647.647 0 0 0-.267.825.929.929 0 0 0 .743.513 1.776 1.776 0 0 0 .929-.171 13.793 13.793 0 0 0 1.977-1.338 2.549 2.549 0 0 1 2.229-.468c.884.342 1.523 2.006 1.806 2.913a1.345 1.345 0 0 1 .743-.743 2.08 2.08 0 0 1 .788-.134l-.5-2.326c-.066-.46-.185-.951-.304-1.441z" class="cls-66" transform="translate(-711.426 -279.137)"/>
                <path id="Path_10506" d="M729.35 318.852l1.947-1.806a1.561 1.561 0 0 1 1.85-.2l1.263.743a.527.527 0 0 1 .178.743.535.535 0 0 1-.7.178l-.907-.5a.23.23 0 0 0-.334.149.238.238 0 0 0 .119.253l1.486.743a.572.572 0 0 1 .282.706.572.572 0 0 1-.743.349l-1.389-.528a.238.238 0 0 0-.312.141.238.238 0 0 0 .1.29l.587.357a.446.446 0 0 1 .156.565.439.439 0 0 1-.654.141z" class="cls-71" transform="translate(-713.908 -288.769)"/>
                <path id="Path_10507" d="M765.928 335l1.858-.208-8.189 13.2-.847-12.023 1.917-.126.052 1.442z" class="cls-9" transform="translate(-745.537 -319.651)"/>
                <path id="Path_10508" d="M719.054 330.717s7.282-3.716 9.185-4.607l-9.319 7.19z" class="cls-62" transform="translate(-711.229 -291.204)"/>
                <path id="Path_10509" d="M720.71 315.858a.2.2 0 0 1-.2-.216 33.492 33.492 0 0 1 .3-4.035.21.21 0 0 1 .416.052 40.066 40.066 0 0 0-.3 4 .208.208 0 0 1-.216.2z" class="cls-62" transform="translate(-711.637 -287.432)"/>
                <path id="Path_10510" d="M761.4 337.31l1.248 1.635 5.105-4.065-1.144.141z" class="cls-72" transform="translate(-746.218 -319.674)"/>
                <path id="Path_10511" d="M760.843 337.652l-1.612 1.271.409-2.616 1.152-.1z" class="cls-72" transform="translate(-745.661 -320.015)"/>
                <path id="Path_10512" d="M768.051 334.746l2.913-.126-3.21 5.105-1.895.758 1.219.929-7.3 6.666z" class="cls-62" transform="translate(-745.802 -319.607)"/>
                <path id="Path_10513" d="M758.511 348.53l-2.214-6.383 1.375-.268-1.464-.929-1.367-3.894 2.905-.676z" class="cls-62" transform="translate(-744.533 -320.059)"/>
                <path id="Path_10514" d="M761.061 338.15l.892 1.182-1.256 1.011-.617-1.4z" class="cls-73" transform="translate(-745.879 -320.514)"/>
                <path id="Path_10515" d="M729.077 304.62a44.657 44.657 0 0 0-.453 7.3l-1.271 2.029-.3-4.02s-.476-3.344.743-5.6z" class="cls-73" transform="translate(-713.293 -285.609)"/>
                <path id="Path_10516" d="M751.15 388.031l24.143-.691v2.081z" class="cls-62" transform="translate(-743.585 -333.151)"/>
            </g>
            <path id="Path_10517" d="M738.712 320.58a.306.306 0 0 1-.211-.1l-1.015-1.225a.278.278 0 0 1 0-.383.268.268 0 0 1 .373 0l1.072 1.263a.258.258 0 0 1 0 .373.249.249 0 0 1-.22.067z" class="cls-62" transform="translate(-517.524 -97.192)"/>
        </g>
    </g>
</svg>
